<svg width="82" height="82" viewBox="0 0 82 82" fill="none" xmlns="http://www.w3.org/2000/svg">
<path d="M80.3621 27.3746L81.6647 20.08C81.9042 18.7387 80.8729 17.507 79.5104 17.507H65.8677L68.5345 2.57298C68.7739 1.23169 67.7426 0 66.3802 0H58.9703C58.4567 9.33099e-06 57.9594 0.180722 57.5655 0.510495C57.1716 0.840267 56.9064 1.29808 56.8161 1.80377L54.0119 17.507H36.0243L38.691 2.57298C38.9307 1.23169 37.8994 0 36.5368 0H29.1269C28.6132 9.33099e-06 28.1159 0.180722 27.7221 0.510495C27.3282 0.840267 27.0629 1.29808 26.9727 1.80377L24.1684 17.507H9.74413C9.23044 17.507 8.73313 17.6877 8.33928 18.0175C7.94543 18.3473 7.68013 18.8051 7.58985 19.3108L6.28722 26.6054C6.04778 27.9466 7.07905 29.1783 8.44149 29.1783H22.0842L17.9159 52.521H3.49157C2.97789 52.521 2.48058 52.7017 2.08673 53.0315C1.69287 53.3613 1.42758 53.8191 1.3373 54.3248L0.0346694 61.6194C-0.204775 62.9606 0.826497 64.1923 2.18894 64.1923H15.8316L13.1649 79.1264C12.9255 80.4677 13.9567 81.6993 15.3192 81.6993H22.729C23.2427 81.6993 23.74 81.5186 24.1339 81.1888C24.5277 80.8591 24.793 80.4013 24.8833 79.8956L27.6877 64.1923H45.6751L43.0083 79.1264C42.7687 80.4677 43.8 81.6993 45.1626 81.6993H52.5725C53.0861 81.6993 53.5834 81.5186 53.9773 81.1888C54.3712 80.8591 54.6364 80.4013 54.7267 79.8956L57.5309 64.1923H71.9553C72.4689 64.1923 72.9663 64.0116 73.3601 63.6818C73.754 63.3521 74.0192 62.8943 74.1095 62.3886L75.4122 55.094C75.6516 53.7527 74.6203 52.521 73.2579 52.521H59.6152L63.7835 29.1783H78.2078C78.7215 29.1783 79.2188 28.9976 79.6127 28.6678C80.0065 28.3381 80.2718 27.8803 80.3621 27.3746ZM47.7593 52.521H29.772L33.9403 29.1783H51.9276L47.7593 52.521Z" fill="white" fill-opacity="0.65"/>
</svg>
