<?xml version="1.0" encoding="UTF-8" standalone="no"?>
 <svg
     width="288"
     height="288"
     class="css-1j8o68f"
     viewBox="0 0 300 216.223"
     version="1.1"
     id="svg6"
     transform="matrix(0.96,0,0,0.96,6.296e-4,40.21346)">
    <path
       fill="#ffd700"
       fill-rule="evenodd"
       d="M 49.378,0.623 C 36.282,0.623 23.722,5.825 14.462,15.085 5.202,24.346 -0.001,36.905 0,50.001 c 0,13.095 5.203,25.655 14.463,34.915 9.26,9.26 21.819,14.462 34.915,14.461 21.08,0 39.072,-13.211 46.155,-31.805 H 100 V 32.429 H 95.532 C 88.449,13.836 70.458,0.624 49.378,0.623 Z m 0,6.822 c 11.286,0 22.111,4.484 30.092,12.464 7.981,7.981 12.465,18.806 12.465,30.092 0,11.287 -4.484,22.111 -12.465,30.092 C 71.489,88.074 60.664,92.558 49.378,92.558 38.091,92.558 27.267,88.074 19.286,80.093 11.305,72.112 6.821,61.288 6.821,50.001 6.821,38.715 11.305,27.89 19.286,19.909 27.267,11.929 38.091,7.445 49.378,7.445 Z m -2.423,4.452 c -0.529,0 -1.041,0.21 -1.417,0.589 -0.378,0.378 -0.588,0.885 -0.588,1.415 0,0.529 0.21,1.042 0.588,1.417 0.379,0.378 0.886,0.588 1.417,0.588 0.528,0 1.041,-0.21 1.416,-0.588 0.379,-0.379 0.589,-0.885 0.589,-1.417 0,-0.528 -0.21,-1.04 -0.589,-1.415 -0.378,-0.379 -0.886,-0.589 -1.416,-0.589 z m -6.963,1.108 0.001,0.002 c -0.174,10e-4 -0.342,0 -0.51,0.073 -9.827,2.633 -17.746,8.88 -22.682,16.922 -0.361,0.582 -0.379,1.312 -0.064,1.912 0.324,0.602 0.947,0.983 1.63,1.001 0.684,0 1.325,-0.33 1.681,-0.914 4.445,-7.243 11.55,-12.857 20.414,-15.232 0.935,-0.24 1.546,-1.137 1.423,-2.094 -0.12,-0.956 -0.938,-1.672 -1.903,-1.667 z m 17.982,15.292 -6.263,0.742 c -1.436,2.499 -3.808,4.323 -6.591,5.072 -2.785,0.746 -5.751,0.348 -8.246,-1.097 l -5.794,2.489 -9.216,14.072 6.708,6.694 6.001,-7.731 3.283,8.957 c 5.56,-5.024 10.966,-11.523 18.232,-15.464 0.063,-0.064 0.12,-0.064 0.18,-0.097 1.459,-0.779 2.994,-1.457 4.619,-1.997 0,0 0,0.001 0,0.001 0.131,-0.064 0.27,-0.082 0.402,-0.127 0.18,-0.063 0.353,-0.113 0.533,-0.168 1.513,-0.444 3.106,-0.765 4.788,-0.947 0.064,0 0.096,0 0.138,0 -0.063,0 -0.063,0 -0.096,0 0.072,0 0.15,0 0.222,0 -0.064,0 -0.082,0 -0.127,0 0.082,0 0.157,0 0.234,0 0.294,0 0.594,-0.064 0.895,-0.073 0.12,0 0.24,0 0.354,0 0.354,0 0.708,-0.064 1.068,-0.064 0.064,0 0.121,0 0.18,0 0.409,0 0.822,0.002 1.239,0 0.082,0 0.157,0 0.229,0 0.432,0 0.862,0.064 1.302,0.073 l 0.739,-2.746 z m 10.228,10.271 c -0.064,0 -0.127,0 -0.192,0 0.064,0 0.126,0 0.192,0 z m 4.052,0.064 -1.724,6.404 v 0 L 67.714,43.888 61.468,41.342 65.75,65.959 43.173,72.009 37.858,57.513 C 30.604,64.067 23.081,68.092 10.8,60.567 16.608,81.795 38.473,94.344 59.732,88.652 79.636,83.314 92.229,63.729 88.824,43.405 82.499,40.458 77.044,39.003 72.254,38.632 Z m -13.276,2.025 c -0.138,0.064 -0.276,0.12 -0.414,0.18 0.139,-0.063 0.277,-0.12 0.414,-0.18 z m -1.826,0.831 c -0.082,0.063 -0.156,0.081 -0.234,0.12 0.082,-0.064 0.157,-0.082 0.234,-0.12 z m -1.755,0.938 -0.102,0.064 z"
       class="color796f1c svgShape"
       transform="matrix(1.5,0,0,1.5,75,-0.935)"
       id="path2" />
    <path
       fill="#ffffff"
       d="M 1.26,5.58 Q 1.26,5.4 1.38,5.27 1.5,5.14 1.71,5.14 h 2.96 q 0.17,0 0.31,0.12 0.14,0.12 0.15,0.32 v 10.88 h 5.5 q 0.18,0 0.31,0.12 0.13,0.12 0.13,0.33 v 2.63 q 0,0.17 -0.115,0.31 Q 10.84,19.99 10.63,20 H 1.7 Q 1.26,20 1.26,19.56 Z m 24.8,13.68 q 0,0.17 -0.06,0.325 -0.06,0.155 -0.2,0.245 -0.11,0.11 -0.26,0.14 Q 25.39,20 25.28,20 H 23.31 Q 23.1,20 22.97,19.945 22.84,19.89 22.76,19.79 22.68,19.69 22.625,19.545 22.57,19.4 22.51,19.23 l -0.29,-0.75 q -0.27,0.27 -0.59,0.575 -0.32,0.305 -0.705,0.565 -0.385,0.26 -0.835,0.435 -0.45,0.175 -0.96,0.175 -0.91,0 -1.745,-0.23 Q 16.55,19.77 15.825,19.345 15.1,18.92 14.51,18.325 13.92,17.73 13.495,17 13.07,16.27 12.84,15.425 12.61,14.58 12.61,13.66 q 0,-1.39 0.51,-2.585 0.51,-1.195 1.39,-2.08 0.88,-0.885 2.07,-1.39 1.19,-0.505 2.55,-0.505 0.62,0 1.14,0.185 0.52,0.185 0.945,0.485 0.425,0.3 0.77,0.68 0.345,0.38 0.615,0.77 L 22.99,8.01 Q 23.09,7.76 23.155,7.605 23.22,7.45 23.295,7.375 23.37,7.3 23.48,7.275 23.59,7.25 23.79,7.25 h 1.49 q 0.11,0 0.26,0.03 0.15,0.03 0.26,0.14 0.14,0.11 0.2,0.25 0.06,0.14 0.06,0.32 z m -9.85,-5.6 q 0,0.66 0.205,1.235 0.205,0.575 0.585,0.995 0.38,0.42 0.915,0.665 0.535,0.245 1.185,0.245 0.67,0 1.245,-0.245 0.575,-0.245 1,-0.665 0.425,-0.42 0.665,-0.995 0.24,-0.575 0.24,-1.235 0,-0.64 -0.24,-1.22 -0.24,-0.58 -0.665,-1.02 -0.425,-0.44 -1,-0.695 Q 19.77,10.47 19.1,10.47 q -0.65,0 -1.185,0.255 Q 17.38,10.98 17,11.42 q -0.38,0.44 -0.585,1.02 -0.205,0.58 -0.205,1.22 z m 24.04,6.17 Q 40.12,19.94 39.975,19.97 39.83,20 39.7,20 H 38.19 Q 38.01,20 37.88,19.935 37.75,19.87 37.66,19.76 37.57,19.65 37.51,19.51 37.45,19.37 37.41,19.22 L 37.1,17.94 q -0.15,0.31 -0.435,0.705 -0.285,0.395 -0.725,0.74 -0.44,0.345 -1.05,0.58 -0.61,0.235 -1.4,0.235 -1.14,0 -2.07,-0.44 -0.93,-0.44 -1.585,-1.2 Q 29.18,17.8 28.82,16.785 28.46,15.77 28.46,14.62 V 8.07 q 0,-0.38 0.165,-0.575 Q 28.79,7.3 29.15,7.3 h 2.31 q 0.43,0 0.59,0.145 0.16,0.145 0.16,0.565 v 6.51 q 0,0.43 0.195,0.815 0.195,0.385 0.515,0.68 0.32,0.295 0.725,0.465 0.405,0.17 0.825,0.17 0.36,0 0.745,-0.17 0.385,-0.17 0.71,-0.455 0.325,-0.285 0.535,-0.67 0.21,-0.385 0.21,-0.815 V 8.04 Q 36.67,7.87 36.735,7.7 36.8,7.53 36.93,7.44 37.06,7.36 37.175,7.33 37.29,7.3 37.44,7.3 h 2.26 q 0.43,0 0.62,0.21 0.19,0.21 0.19,0.56 v 11.19 q 0,0.19 -0.085,0.35 -0.085,0.16 -0.235,0.25 z M 43.17,7.47 Q 43.3,7.36 43.445,7.33 43.59,7.3 43.72,7.3 h 1.51 q 0.18,0 0.31,0.065 0.13,0.065 0.22,0.175 0.09,0.11 0.145,0.25 0.055,0.14 0.105,0.29 l 0.31,1.28 Q 46.47,9.05 46.755,8.655 47.04,8.26 47.48,7.915 47.92,7.57 48.525,7.335 49.13,7.1 49.93,7.1 q 1.14,0 2.07,0.44 0.93,0.44 1.585,1.2 0.655,0.76 1.015,1.775 0.36,1.015 0.36,2.165 v 6.55 q 0,0.38 -0.165,0.575 Q 54.63,20 54.27,20 H 51.96 Q 51.53,20 51.37,19.855 51.21,19.71 51.21,19.29 v -6.51 q 0,-0.43 -0.195,-0.815 Q 50.82,11.58 50.5,11.285 50.18,10.99 49.775,10.82 49.37,10.65 48.95,10.65 q -0.36,0 -0.735,0.16 -0.375,0.16 -0.69,0.445 -0.315,0.285 -0.53,0.67 -0.215,0.385 -0.245,0.835 v 6.5 q 0,0.17 -0.065,0.34 -0.065,0.17 -0.195,0.26 -0.13,0.08 -0.245,0.11 Q 46.13,20 45.98,20 H 43.72 Q 43.29,20 43.1,19.79 42.91,19.58 42.91,19.23 V 8.04 q 0,-0.19 0.085,-0.35 0.085,-0.16 0.235,-0.25 z m 22.94,10.98 q -0.27,0.27 -0.595,0.58 -0.325,0.31 -0.715,0.58 -0.39,0.27 -0.84,0.445 -0.45,0.175 -0.97,0.175 -1.36,0 -2.505,-0.51 -1.145,-0.51 -1.97,-1.395 -0.825,-0.885 -1.29,-2.085 -0.465,-1.2 -0.465,-2.58 0,-1.39 0.465,-2.585 Q 57.69,9.88 58.515,8.995 59.34,8.11 60.485,7.605 61.63,7.1 62.99,7.1 q 0.55,0 1.005,0.16 0.455,0.16 0.83,0.41 0.375,0.25 0.69,0.565 Q 65.83,8.55 66.11,8.85 V 4.28 q 0,-0.32 0.195,-0.54 Q 66.5,3.52 66.89,3.52 h 2.25 q 0.13,0 0.275,0.055 0.145,0.055 0.265,0.155 0.12,0.1 0.195,0.24 0.075,0.14 0.075,0.31 V 19.23 Q 69.95,20 69.14,20 H 67.18 Q 66.98,20 66.87,19.95 66.76,19.9 66.685,19.805 66.61,19.71 66.55,19.565 66.49,19.42 66.4,19.23 Z m -5.75,-4.79 q 0,0.66 0.205,1.235 0.205,0.575 0.585,0.995 0.38,0.42 0.915,0.665 0.535,0.245 1.185,0.245 0.64,0 1.205,-0.23 0.565,-0.23 0.985,-0.635 0.42,-0.405 0.675,-0.955 0.255,-0.55 0.285,-1.18 v -0.14 q 0,-0.64 -0.24,-1.22 -0.24,-0.58 -0.665,-1.02 -0.425,-0.44 -1,-0.695 -0.575,-0.255 -1.245,-0.255 -0.65,0 -1.185,0.255 -0.535,0.255 -0.915,0.695 -0.38,0.44 -0.585,1.02 -0.205,0.58 -0.205,1.22 z M 72.61,8.04 q 0,-0.17 0.075,-0.325 Q 72.76,7.56 72.87,7.47 73.13,7.3 73.41,7.3 h 1.51 q 0.19,0 0.3,0.07 0.11,0.07 0.185,0.18 0.075,0.11 0.13,0.25 0.055,0.14 0.135,0.28 0.02,0.04 0.08,0.195 0.06,0.155 0.13,0.34 0.07,0.185 0.135,0.35 Q 76.08,9.13 76.1,9.18 76.4,8.85 76.675,8.485 76.95,8.12 77.26,7.81 77.57,7.5 77.95,7.3 q 0.38,-0.2 0.9,-0.2 0.54,0 0.965,0.08 0.425,0.08 0.805,0.235 0.38,0.155 0.755,0.395 0.375,0.24 0.815,0.56 0.69,0.37 0.26,1.1 l -0.91,1.55 q -0.2,0.3 -0.49,0.37 Q 80.76,11.46 80.42,11.3 79.99,10.88 79.545,10.675 79.1,10.47 78.53,10.47 q -0.39,0 -0.685,0.11 -0.295,0.11 -0.535,0.31 -0.24,0.2 -0.45,0.48 -0.21,0.28 -0.42,0.62 v 7.24 q 0,0.38 -0.185,0.575 Q 76.07,20 75.64,20 h -2.25 q -0.78,0 -0.78,-0.77 z m 11.5,0.04 q 0,-0.32 0.18,-0.55 0.18,-0.23 0.56,-0.23 h 2.29 q 0.12,0 0.26,0.055 0.14,0.055 0.26,0.16 0.12,0.105 0.205,0.245 0.085,0.14 0.085,0.32 v 11.15 q 0,0.38 -0.21,0.575 Q 87.53,20 87.14,20 h -2.29 q -0.74,0 -0.74,-0.77 z m 0,-5.06 q 0,-0.42 0.18,-0.595 0.18,-0.175 0.56,-0.175 h 2.32 q 0.35,0 0.565,0.175 Q 87.95,2.6 87.95,3.02 v 1.95 q 0,0.12 -0.055,0.26 Q 87.84,5.37 87.74,5.5 87.64,5.63 87.495,5.715 87.35,5.8 87.17,5.8 h -2.32 q -0.74,0 -0.74,-0.83 z M 89.5,8.29 Q 89.3,7.88 89.425,7.59 89.55,7.3 90.02,7.3 h 2.56 q 0.26,0 0.455,0.14 0.195,0.14 0.275,0.4 0.17,0.53 0.375,1.19 0.205,0.66 0.43,1.355 0.225,0.695 0.445,1.38 0.22,0.685 0.405,1.26 0.185,0.575 0.33,1 0.145,0.425 0.215,0.605 L 97.63,7.84 Q 97.76,7.52 97.925,7.41 98.09,7.3 98.39,7.3 h 2.63 q 0.29,0 0.44,0.07 0.15,0.07 0.2,0.19 0.05,0.12 0.02,0.275 -0.03,0.155 -0.1,0.325 L 96.82,19.57 Q 96.71,19.75 96.56,19.875 96.41,20 96.11,20 H 94.92 Q 94.52,20 94.355,19.885 94.19,19.77 94.11,19.57 Z m 13.61,-0.25 q 0,-0.17 0.075,-0.325 0.075,-0.155 0.185,-0.245 0.26,-0.17 0.54,-0.17 h 1.51 q 0.19,0 0.3,0.07 0.11,0.07 0.185,0.18 0.075,0.11 0.13,0.25 0.055,0.14 0.135,0.28 0.02,0.04 0.08,0.195 0.06,0.155 0.13,0.34 0.07,0.185 0.135,0.35 0.065,0.165 0.085,0.215 0.3,-0.33 0.575,-0.695 0.275,-0.365 0.585,-0.675 0.31,-0.31 0.69,-0.51 0.38,-0.2 0.9,-0.2 0.54,0 0.965,0.08 0.425,0.08 0.805,0.235 0.38,0.155 0.755,0.395 0.375,0.24 0.815,0.56 0.69,0.37 0.26,1.1 l -0.91,1.55 q -0.2,0.3 -0.49,0.37 -0.29,0.07 -0.63,-0.09 -0.43,-0.42 -0.875,-0.625 -0.445,-0.205 -1.015,-0.205 -0.39,0 -0.685,0.11 -0.295,0.11 -0.535,0.31 -0.24,0.2 -0.45,0.48 -0.21,0.28 -0.42,0.62 v 7.24 q 0,0.38 -0.185,0.575 Q 106.57,20 106.14,20 h -2.25 q -0.78,0 -0.78,-0.77 z"
       class="color2b2e4a svgShape"
       transform="matrix(2.68204,0,0,2.68204,-3.38,161.965)"
       id="path4" />
  </svg>
