<svg width="94" height="94" viewBox="0 0 94 94" fill="none" xmlns="http://www.w3.org/2000/svg">
<g clip-path="url(#clip0_8_51)">
<path fill-rule="evenodd" clip-rule="evenodd" d="M20.4544 20.4784H39.7972V39.6945H20.4544V20.4784ZM27.3467 -3.42988e-06H17.6868C15.3789 -0.00263537 13.0934 0.452413 10.9632 1.3387C8.81646 2.22595 6.86539 3.52553 5.22094 5.16357V5.16357C3.57976 6.80479 2.27738 8.75147 1.38764 10.8932C0.478623 13.03 0.00683012 15.3266 -8.62538e-06 17.6479V29.5586H7.84291V17.6479C7.85097 16.3606 8.11141 15.0872 8.60957 13.8996C9.0985 12.7063 9.82039 11.622 10.7332 10.7096V10.7096C12.5784 8.87164 15.0795 7.83984 17.6868 7.84098H27.3467V-3.42988e-06ZM76.3132 -3.42988e-06H70.0036V7.82568H76.3132C77.6033 7.83451 78.8794 8.09435 80.0698 8.59065C81.2615 9.08636 82.3468 9.8057 83.2668 10.7096L83.5351 10.985C84.3272 11.8423 84.9629 12.8313 85.4134 13.9072C85.915 15.0911 86.1756 16.3627 86.1801 17.6479V29.5586H94.023V17.6479C94.0249 13.1034 92.2606 8.73518 89.101 5.46191V5.46191L88.8174 5.17887C87.1725 3.5413 85.2216 2.24178 83.0751 1.354C80.9338 0.45847 78.635 -0.00184637 76.3132 -3.42988e-06V-3.42988e-06ZM94 76.352V63.1256H86.1571V76.352C86.1526 77.6373 85.892 78.9089 85.3904 80.0928C84.8881 81.2845 84.1591 82.3678 83.2438 83.2827C82.3337 84.1971 81.2516 84.9231 80.0597 85.4194C78.8677 85.9156 77.5894 86.1721 76.2978 86.1743H70.0036V94H76.3132C78.6346 93.9983 80.9327 93.5393 83.0759 92.6492C85.219 91.7592 87.165 90.4557 88.8021 88.8135C90.4405 87.17 91.7425 85.2239 92.6353 83.0838C93.5211 80.9495 93.977 78.6621 93.977 76.352H94ZM17.6868 94H27.3467V86.1743H17.6868C16.394 86.1731 15.1142 85.9171 13.9208 85.4208C12.7275 84.9246 11.6442 84.198 10.7332 83.2827L10.5339 83.0991C9.67435 82.195 8.99526 81.1357 8.5329 79.978C8.07019 78.825 7.83336 77.5941 7.83524 76.352V63.1256H-8.62538e-06V76.352C-0.00358589 78.5995 0.431273 80.8262 1.28031 82.9079C2.12651 85.0092 3.3737 86.9266 4.95261 88.5534L5.19027 88.8211C6.83787 90.4589 8.79138 91.7584 10.9402 92.646C13.0783 93.5329 15.3714 93.9879 17.6868 93.9847V94ZM68.6849 68.6794H73.5992V73.5216H68.6849V68.6794ZM59.209 68.6794H64.1463V73.2692H54.2794V63.8524H59.0327V59.0713H63.8933V49.5397H68.8459V54.2214H73.5379V59.0636H68.8459V63.9059H59.209V68.6717V68.6794ZM44.5735 58.9948H49.3498V54.1525H44.7498V49.3102H49.3498V44.4679H44.6502V49.3102H39.7129V44.4679H44.5659V30.0864H49.4955V44.4603H54.2718V49.3026H58.9714V44.4603H63.901V49.3026H59.209V54.1449H54.2794V63.6764H49.5031V73.2922H44.5735V58.9948ZM68.6083 44.4603H73.5379V49.3026H68.6083V44.4603V44.4603ZM30.0913 44.4603H35.021V49.3026H30.0913V44.4603V44.4603ZM20.4544 44.4603H25.3841V49.3026H20.4544V44.4603V44.4603ZM44.5735 20.4784H49.5031V25.3206H44.5735V20.4784ZM20.3778 54.2214H39.7129V73.4375H20.3778V54.2214ZM25.0774 58.903H35.044V68.7788H25.0774V58.903ZM54.2104 20.486H73.5379V39.6945H54.2027V20.4784L54.2104 20.486ZM58.91 25.1523H68.8766V35.0282H58.91V25.1447V25.1523ZM25.1771 25.1523H35.1436V35.0282H25.1771V25.1447V25.1523Z" fill="white" fill-opacity="0.65"/>
</g>
<defs>
<clipPath id="clip0_8_51">
<rect width="94" height="94" fill="white"/>
</clipPath>
</defs>
</svg>
